<svg xmlns="http://www.w3.org/2000/svg" width="900" height="420" viewBox="0 0 900 420"><rect width="100%" height="100%" fill="white"/>
<text x="450.0" y="28" text-anchor="middle" font-family="Arial" font-size="20" font-weight="700">MSFT 5-year revenue, operating income and FCF (FY2021-FY2025)</text>
<line x1="70" y1="365.0" x2="870" y2="365.0" stroke="#e5e7eb"/><text x="60" y="369.0" text-anchor="end" font-family="Arial" font-size="11" fill="#6b7280">0</text>
<line x1="70" y1="286.2" x2="870" y2="286.2" stroke="#e5e7eb"/><text x="60" y="290.2" text-anchor="end" font-family="Arial" font-size="11" fill="#6b7280">78</text>
<line x1="70" y1="207.5" x2="870" y2="207.5" stroke="#e5e7eb"/><text x="60" y="211.5" text-anchor="end" font-family="Arial" font-size="11" fill="#6b7280">155</text>
<line x1="70" y1="128.8" x2="870" y2="128.8" stroke="#e5e7eb"/><text x="60" y="132.8" text-anchor="end" font-family="Arial" font-size="11" fill="#6b7280">232</text>
<line x1="70" y1="50.0" x2="870" y2="50.0" stroke="#e5e7eb"/><text x="60" y="54.0" text-anchor="end" font-family="Arial" font-size="11" fill="#6b7280">310</text>
<text x="70.0" y="395" text-anchor="middle" font-family="Arial" font-size="12" fill="#374151">2021</text>
<text x="270.0" y="395" text-anchor="middle" font-family="Arial" font-size="12" fill="#374151">2022</text>
<text x="470.0" y="395" text-anchor="middle" font-family="Arial" font-size="12" fill="#374151">2023</text>
<text x="670.0" y="395" text-anchor="middle" font-family="Arial" font-size="12" fill="#374151">2024</text>
<text x="870.0" y="395" text-anchor="middle" font-family="Arial" font-size="12" fill="#374151">2025</text>
<polyline points="70.0,194.2 270.0,163.5 470.0,149.7 670.0,115.9 870.0,78.8" fill="none" stroke="#2563eb" stroke-width="3"/>
<circle cx="70.0" cy="194.2" r="4" fill="#2563eb"/>
<circle cx="270.0" cy="163.5" r="4" fill="#2563eb"/>
<circle cx="470.0" cy="149.7" r="4" fill="#2563eb"/>
<circle cx="670.0" cy="115.9" r="4" fill="#2563eb"/>
<circle cx="870.0" cy="78.8" r="4" fill="#2563eb"/>
<polyline points="70.0,294.0 270.0,280.3 470.0,275.1 670.0,253.8 870.0,234.4" fill="none" stroke="#16a34a" stroke-width="3"/>
<circle cx="70.0" cy="294.0" r="4" fill="#16a34a"/>
<circle cx="270.0" cy="280.3" r="4" fill="#16a34a"/>
<circle cx="470.0" cy="275.1" r="4" fill="#16a34a"/>
<circle cx="670.0" cy="253.8" r="4" fill="#16a34a"/>
<circle cx="870.0" cy="234.4" r="4" fill="#16a34a"/>
<polyline points="70.0,308.0 270.0,298.9 470.0,304.5 670.0,289.7 870.0,292.2" fill="none" stroke="#dc2626" stroke-width="3"/>
<circle cx="70.0" cy="308.0" r="4" fill="#dc2626"/>
<circle cx="270.0" cy="298.9" r="4" fill="#dc2626"/>
<circle cx="470.0" cy="304.5" r="4" fill="#dc2626"/>
<circle cx="670.0" cy="289.7" r="4" fill="#dc2626"/>
<circle cx="870.0" cy="292.2" r="4" fill="#dc2626"/>
<rect x="70" y="402" width="12" height="3" fill="#2563eb"/><text x="88" y="406" font-family="Arial" font-size="12">Revenue</text>
<rect x="260" y="402" width="12" height="3" fill="#16a34a"/><text x="278" y="406" font-family="Arial" font-size="12">Operating income</text>
<rect x="450" y="402" width="12" height="3" fill="#dc2626"/><text x="468" y="406" font-family="Arial" font-size="12">FCF</text>
</svg>